<svg xmlns="http://www.w3.org/2000/svg" width="97.598" height="103.762" viewBox="0 0 97.598 103.762">
  <g id="Layer_x0020_1" transform="translate(0 0.256)">
    <path id="Path_1" data-name="Path 1" d="M49.287,527.861c0,1.144.225,1.135.2,1.976-.118,3.878-1.829,9.222,2.279,9.294,2.051.036,2.882-.1,4.421.578,1.452.642.414.557,3.257,1.492a6.508,6.508,0,0,1,1.741.758c.391.241.3.222.75.5s.414.222.806.443l21.182,13.565c.554.433.859.727,1.385,1.115,1.655,1.217,2.161.443,3.18,1.82,4.73,6.389,7.012.707,8.027-.311.885-.887,5.99-3.573,8.272-4.977.648-.4,1.529-.648,2.247-1,.792-.39,1.471-.74,2.33-1.171l6.515-3.235a46.816,46.816,0,0,1,7.695-2.554c.832-.145,4.205-1.192,4.205-2.794,0-.815-1.195-1.378-1.75-1.75.2-2.386.517-.3.489-5.51-.015-2.8,1.01-2.223,1.01-5.24-1.438-.335-.171-.5-2.749-.5-.49,0-2,1.118-2,1.5,0,1.513.512,1.352.477,2.887-.458,1.558.154,4.32.318,5.547s1.011,1.2-.795,2.651-4.414,2.253-6.746,3.167c-3.5,1.368-3.455,1.785-5.926,2.823l-3.989,1.761c-2.431,1.167-8.455,3.687-10.073,4.675l-2.94,1.6c-2.287,1-1.819-2.138-1.641-3.426.118-.857.025-1.584.069-2.432.21-4.2,2.14-9-3-9-2.082,0-1.75,2.952-1.75,3.749,0,1.518,1.77-.163,1.254,5.5-.126,1.38-.256.938-.5,2-2.116,0-3.091-1.2-4.445-2.055-.73-.461-1.377-.68-2.108-1.14-1.576-.992-4.321-3.437-5.782-3.966-3.324-1.2-5.828-3.907-8.264-4.984l-10.646-5.6a5.914,5.914,0,0,0-2.5-1c-1.4-6,2.919-8.75-2.5-8.75a2.4,2.4,0,0,0-2,2Z" transform="translate(-42.787 -458.886)" fill="#fff" fill-rule="evenodd"/>
    <path id="Path_2" data-name="Path 2" d="M47.867,20.48c0,3.294.535.769.507,4.244-.029,3.553.609,4.133-.283,6.98-.55,1.755-2.626,5.026,1.776,5.026.9,0,1.634-1.515,1.924-2.327.6-1.691.089-2.129.066-3.912l.233-7.813c.561-1.494,2.835-1.045,5.464-3.259A12.657,12.657,0,0,1,60.539,17.9l14.743-7.5a63.1,63.1,0,0,0,5.535-3.214c.345-.187,5.6-2.452,6.547-2.452,1.173,0,1,.178,1,2a23.757,23.757,0,0,1-.24,3.26c-.332,3.14-2.591,2.432-1.712,4.916.805,2.278,4.371,1.631,4.977,1.1a5.655,5.655,0,0,0,.823-1.454c.426-1.506-1.175-1.57-.958-3.178.1-.739.248-.964.4-1.852.787-4.66.559-2.9.559-5.533,2.3.191,4.924,1.918,7.57,3.324.748.4,1.2.772,1.842,1.157l5.883,3.615c1.3.939,2.343,1.758,3.6,2.646,1.223.862,2.363,1.694,3.582,2.666,1.662,1.326,3.9,5.33,7.168,5.33,1.061,0-.12-.254,1.25-.75.766,3.287-.61,10.248-.419,10.9a3.312,3.312,0,0,0,2.419,1.6,2.955,2.955,0,0,0,2.5-3c0-1.2-.75-1.3-.75-2.5a34.679,34.679,0,0,1,.332-6.925c.675-4.128-1.843-2.66-3.938-3.218a12.59,12.59,0,0,1-2.543-1.208c-4.131-2.5-8.835-6.207-13.648-9.1-.87-.522-1.488-.814-2.353-1.4-2.525-1.7-3.293-1.921-5.4-3.847-.832-.761-.339-.268-1.265-.734-2.3-1.159-1.13-2.568-5.681-2.568a15.239,15.239,0,0,0-2.386-.2c-.662.126-.586.246-1.259.351-1.4.215-5.264,2.849-6.71,3.495C79.058,4.941,71.6,9.594,70.081,10.195c-2.117.837-1.335.9-2.559,1.44-3.445,1.529-1.171-.255-8.473,3.775a22.408,22.408,0,0,1-6.031,1.968c-1.6.417-1.357,1.005-2.4,1.6-.927.526-2.747.377-2.747,1.5Z" transform="translate(-41.118)" fill="#fff" fill-rule="evenodd"/>
    <path id="Path_3" data-name="Path 3" d="M200.332,156.089c-.4,3.906,3.645,1.529,5.593,1.269,2.088-.28,3.138-.777,5.172-.948.73-.061,4.135-1.255,4.589-.957.3.195,1.187.848,1.184,1.419,0,.648-.954,1.219-1.54,1.385l-2.382,1.517c-2.749,1.805-3.205,1.864-6.5,3.045-1.138.408-4.075.506-3.919,1.678.113.847,1.27,2.352,1.818,2.279,4.6-.617,3.986-2.423,8.405-.521,1.717.739,3.692,1.792,4.464,3.474.947,2.061.744.764,1.077,3.25.1.743-.079.428-.383.819l-2.531,1.847c-9.37,4.092-7.351-1.4-13.982,1.11.633,4.729,6.571,3.156,10.441,2.637,6.045-.81,11.676-3.747,7.934-10.679-1.561-2.893-6.214-4.589-7.086-5.575a24.489,24.489,0,0,1,2.14-1.256,21.111,21.111,0,0,1,2.3-1.359,5.189,5.189,0,0,0,2.928-5.065c-.3-2.226-2.266-2.6-3.872-2.706-2.843-.182-13.71,2.163-15.85,3.342Z" transform="translate(-174.787 -133.3)" fill="#fff" fill-rule="evenodd"/>
    <path id="Path_4" data-name="Path 4" d="M439.043,176.5c0,4.286-3.689,7.583-7.082,9.175a15.474,15.474,0,0,1-4.215,1.3c-2.269,0-.833-4.455-.817-5.224.037-1.674.108-2.623.236-3.92.167-1.687-.354-1.754-.064-3.61,1-6.4-1.465-8.1,2.022-7.116,4.6,1.3,9.919,7.845,9.919,9.4Zm-16.533-8.267c0,1.749.827,3.007.827,5.236a53.706,53.706,0,0,1-.345,8.747c-.116.576-2.722,4.05-.335,6.537,1.792,1.866,2.325,1.524,5.089,1.524,3.412,0,7.816-2.236,9.585-3.916.754-.716.778-1.113,1.549-1.757,1.841-1.538,2.092-1.547,2.854-3.759,1.711-4.972-.117-6.213-1.977-8.915-3.869-5.619-13.26-11.031-16.485-7.067a6.988,6.988,0,0,0-.762,3.372Z" transform="translate(-367.936 -142.686)" fill="#fff" fill-rule="evenodd"/>
    <path id="Path_5" data-name="Path 5" d="M618.717,364.65c0,3.736,2.977,2.47,5.6,8.279a7.6,7.6,0,0,1,.513,1.491c.215,1.024.08.366-.015,1.511-1.2-.1-1.063-.348-1.861-.888-2.73-1.848-1.313-.271-5.075-3.674-1.4-1.268-5.6-4.054-7.979-3.116-1.859.731-1.428,2.052-.482,3.577.453.731.781,1.1,1.157,1.843l1.75,4c2.631,4.566.682,5.757,4.742,5.757a1.8,1.8,0,0,0,1.5-2c0-1.147-1.327-2.66-1.82-3.679l-1.679-3.819c1.354.112,3.79,2.5,5.1,3.4.912.625,1.833.721,2.851,1.4,1.57,1.043,4.552,2.255,5.391-.2a12.941,12.941,0,0,0,.255-2.733c.161-2.163-2.758-5.565-3.926-7.785-1.675-3.185-6.016-4.924-6.016-3.358Z" transform="translate(-531.069 -317.704)" fill="#fff" fill-rule="evenodd"/>
    <path id="Path_6" data-name="Path 6" d="M4.749,346.158c.231-.866,1.475-1.969,2.3-3.2a9.113,9.113,0,0,1,1.261-1.489c.447-.5.805-1.06,1.189-1.562l3.832-4.417c.611-1.152.176-1.3,1.67-1.33a3.133,3.133,0,0,0,.538,1.213c1.59,3.086-.006,7.763-1.278,10.3a7.334,7.334,0,0,1-4.472,2.907c-.1-.009-4.329-1.358-5.037-2.417Zm-4.749,1c0,1.133,1.006,1.227,1.894,1.605a17.123,17.123,0,0,1,2.257,1.492l6.1,1.4a6.036,6.036,0,0,0,2.424-.576c2.571-1.27,5.1-3.456,5.543-6.456.169-1.149.3-1.685.466-2.534.676-3.526,1.037-5.855-.631-8.985-1.6-3-5.53-1.181-5.533-1.178-3.181,1.68-3.9,3.777-6.022,6.726l-2.175,2.824c-1.066,1.254-.238.74-2.259,2.742-.64.633-2.063,1.87-2.063,2.936Z" transform="translate(0 -289.182)" fill="#fff" fill-rule="evenodd"/>
    <path id="Path_7" data-name="Path 7" d="M155,421.182c0,1.324-1.405,2.135-2.249,5a19.853,19.853,0,0,1-.929,2.571c-1.254,2.893-1.713,2.75-.017,4.619,1.31,1.442,1.311,2.557,5.943,2.557,2.329,0,7.572-1.492,8.749-3.25-.039-.045-.092-.181-.108-.141s-.087-.112-.112-.138c-1.753-1.806-4.449.279-8.028.279-1.336,0-3.25-.41-3.25-1.75,0-4.269,6.749-.543,6.749-3.5a3.631,3.631,0,0,0-.25-1.25,9.374,9.374,0,0,0-4-.75c.027-1.219.047-.836,1.327-2.422.375-.464.437-.684,1.116-.671,2.665.05,8.556,3.908,8.556,1.344,0-2.241-.479-2.034-5.53-3.469-2.615-.743-1.392-.368-2.677-1.322-.93-.69-3.934-1.761-5.1-.005-.7,1.056-.191,1.205-.191,2.3Z" transform="translate(-131.505 -364.705)" fill="#fff" fill-rule="evenodd"/>
    <path id="Path_8" data-name="Path 8" d="M492.5,423.778c0,3.2.117,3.564,2.807,5.943,3.363,2.975,4.74,3.908,9.273,1.386,3.489-1.941,4.719-3.438,4-6.656-.261-1.166-.349-1.45-2.115-2.136-1.287-.5-3.945.1-5.008.42-3.251.973-2.432,3.544-.706,3.544,2.554,0,3.2-.982,4.5-.25-.281,1.054-3.259,4.311-6.4,2.152-2.106-1.446-3.1-3.2-2.5-5.8,1.819-7.925,6.151-2.977,6.151-6.354,0-1.463-2.115-2-3.749-2-1.736,0-3.538,2.437-4.427,3.573-1.634,2.089-1.823,3.5-1.823,6.176Z" transform="translate(-429.758 -361.302)" fill="#fff" fill-rule="evenodd"/>
    <path id="Path_9" data-name="Path 9" d="M302.18,442.513v1.5c0,1.963,4.608,2.86,5.681,3.319a8.921,8.921,0,0,1,2.069.931c-.44,1.885-1.5,2.358-3.177,3.072-2.347,1-5.176,1.824-3.59,3.2,1.8,1.557,7.688-1.259,8.729-2.807,4.324-6.428-5.461-7.225-5.461-8.961,0-.869,3.2-3.181,4.219-3.529,1.5-.512,1.53-.359,1.53-1.97,0-1.669-3.257-2.721-6.394,1.355l-2.721,2.778c-.46.353-.884.406-.884,1.116Z" transform="translate(-263.684 -380.286)" fill="#fff" fill-rule="evenodd"/>
    <path id="Path_10" data-name="Path 10" d="M421.871,456.489c0,2.423,2.4,2.121,1.713,8.213a10.165,10.165,0,0,0-.219,2.53c.275,3.631,4.754,3.515,4.754.757,0-2.074-2.223,1.153-1.068-7.068a12.361,12.361,0,0,0-.27-4.093c-.366-1.539-1.967-1.587-3.663-1.587a1.418,1.418,0,0,0-1.25,1.25Z" transform="translate(-368.126 -397.262)" fill="#fff" fill-rule="evenodd"/>
  </g>
</svg>
