<svg xmlns="http://www.w3.org/2000/svg" width="91.699" height="99.523" viewBox="0 0 91.699 99.523">
  <g id="Group_2" data-name="Group 2" transform="translate(-368 -640.798)">
    <g id="Layer_x0020_1" transform="translate(368 640.798)">
      <path id="Path_11" data-name="Path 11" d="M150.906,160.951a22.173,22.173,0,0,0,1.06,3.06A53.079,53.079,0,0,1,154.2,174.96c-4.726,1.1-4.87.941-9.333.5-.389-1.757.562-1.735,1.259-3.352l1.992-5.7C148.628,164.963,149.693,161.763,150.906,160.951Zm-15.656,29.39a1.849,1.849,0,0,0,3.186,1.272c1.281-1.089,1.357-4.914,1.954-6.844a17.461,17.461,0,0,1,.858-2.164c1.628-3.529.307-3.251,6.362-3.251a27.941,27.941,0,0,1,3.89.239c2.376.285,2.286-.387,3.8-.513,2.319,4.381-.394,4.908,2.3,7.866.794.872,1.3,1.031,3.164-.208,2.912-1.934-.409-4.213-.983-5.269a16.361,16.361,0,0,1-1.458-4.036c-1.086-4.151-.7-4.388-1.87-9.117l-1.71-6.53a43.731,43.731,0,0,0-1.058-4.436,16.119,16.119,0,0,1-.292-2.454,2.847,2.847,0,0,0-5.025-1.706c-.62.759-.411,1.542-.525,2.77a37.836,37.836,0,0,1-1.044,5.548c-.737,2.66-2.979,4.956-4.231,9.227-2.147,7.324-4.68,10.393-5.727,14.323a24.307,24.307,0,0,1-.684,2.611,6.9,6.9,0,0,0-.9,2.669Z" transform="translate(-110.571 -124.42)" fill="#fff" fill-rule="evenodd"/>
      <path id="Path_12" data-name="Path 12" d="M78.05,456.693c.1,1.215,1.921,3.729,2.7,4.716a16.352,16.352,0,0,0,4.35,3.341c2.388,1.336,2.9.774,5.116,2.574,2.777,2.255,7.738,2.251,8.953,2.584,3.565.974,4.5.577,6.864.827l9.911,1.659c2.914.549,5.727-3.943,2.146-4.669-1.341-.272-1.759.23-2.958.23a48.458,48.458,0,0,1-5.167-.6c-4.95-.63-10.869-.252-15.345-2.509a25.373,25.373,0,0,0-3.826-1.943,11.011,11.011,0,0,1-2.193-.828c-.766-.432-1.1-.659-1.947-1.075-4.328-2.12-5.163-6.37-8.6-4.306Z" transform="translate(-63.808 -372.917)" fill="#fff" fill-rule="evenodd"/>
      <path id="Path_13" data-name="Path 13" d="M389.67,43.232c0,4.251,5.818,3.627,8.979,9.973.763,1.531,1.224,3.147,2.053,4.539,2.383,4.012,3.279,3.1,4.375,8.26a43.437,43.437,0,0,1,1.071,5.246c.595,6.03,4.122,4.207,4.122,2.47l-.936-5.107c-.2-.916-.529-1.741-.637-2.385-.591-3.5-.644-5.514-3.434-8.652-2.419-2.722-2.925-6.28-4.282-8.077-.558-.737-.936-.856-1.542-1.755a14.38,14.38,0,0,0-1.18-1.841c-1.726-1.98-3.587-3.773-6.391-3.773-.688,0-2.2.6-2.2,1.1Z" transform="translate(-318.571 -34.443)" fill="#fff" fill-rule="evenodd"/>
      <path id="Path_14" data-name="Path 14" d="M5.442,226.147c1.9,0,4.249-1.992,3.135-3.658-.544-.812-1.244-1.033-1.967-1.631-1.166-.963-1.564-3.759-1.748-5.393-.111-1-.173-2.045-.319-3.251-.1-.794-.314-2.186-.469-3.1a25.244,25.244,0,0,1-.555-6.037l.389-6.2a6.465,6.465,0,0,0,.434-1.763c0-1.312-2.321-1.974-3.217-1.035L-.01,198.417l.232,5.2c0,2.169.119,3.742.259,5.508.3,3.786-.217,6.953.629,10.082.128.469,2.708,6.933,4.33,6.933Z" transform="translate(0.01 -158.303)" fill="#fff" fill-rule="evenodd"/>
      <path id="Path_15" data-name="Path 15" d="M112.025,385.721c-.611,2.553.713,3.045,4.189,6.523a17.5,17.5,0,0,0,2.591,2.354c1.764,1.217,8.355,3.6,10.548,4.286,3.222,1.011,5.246.022,8.767.022,1.761,0,6.993,1.688,5.767-3.571a9.047,9.047,0,0,0-4.12-.549c-2.4,0-.7,1.1-8.24,1.1a9.342,9.342,0,0,1-2.664-.907c-.951-.376-1.662-.562-2.66-.91a22.84,22.84,0,0,1-8.891-5.392c-1.657-1.638-2.567-4.01-5.286-2.956Z" transform="translate(-91.466 -315.129)" fill="#fff" fill-rule="evenodd"/>
      <path id="Path_16" data-name="Path 16" d="M388.162,339.5c0,1.016,1.4,1.648,2.472,1.648,1.731,0,4.5-3.759,5.881-4.831,3.04-2.359,1.784-1.657,4.257-3.983,4.815-4.53,5.749-13.485,6.667-15.033.21-.352,1.049-1.39,1.049-1.7,0-2.036-1.179-2.472-3.021-2.472-3.178,0-1.606,3.131-2.8,7.917a21.6,21.6,0,0,1-1.483,4.01,19.231,19.231,0,0,1-1.921,3.572,22.135,22.135,0,0,1-5.3,5.691c-.739.6-5.809,4.257-5.809,5.178Z" transform="translate(-317.336 -255.998)" fill="#fff" fill-rule="evenodd"/>
      <path id="Path_17" data-name="Path 17" d="M29.87,50.271a2.976,2.976,0,0,0,.943,2.354c.629.551-.754.394,1.8.394,2.164,0,.94-1.609,5.153-6.109l2.646-3.124c1.084-.879,2.365-1.447,3.47-2.3,2.948-2.266,1.23-1.283,5.125-3.39,1.848-1,.3-.567,3.737-2.031.817-.348,1.224-.624,2.011-1.009,2.226-1.095,4.227.653,4.227-2.091,0-1.545-2.943-1.374-3.846-1.374-1.286,0-6.421,2.693-7.577,3.408-3.089,1.914-4.087,2.877-6.483,4.5a38.149,38.149,0,0,0-3.164,2.33L32.273,47.18c-.535.533-2.4,2.361-2.4,3.091Z" transform="translate(-24.418 -25.825)" fill="#fff" fill-rule="evenodd"/>
      <path id="Path_18" data-name="Path 18" d="M106.65,107.357c0,1.334.582,1.7,1.1,2.472,2.394-.558,4.145-3.058,5.853-4.583,2.213-1.976.515-1.3,3.124-3.468a25.976,25.976,0,0,1,5.485-3.855,23.227,23.227,0,0,1,3.779-1.441,40.655,40.655,0,0,1,4.51-.723c.91-.261,2.62-2.408-3.521-2.408-5.322,0-6.588,2.1-9.157,3.478a36.725,36.725,0,0,0-7.121,5.789l-4.047,4.742Z" transform="translate(-87.189 -76.318)" fill="#fff" fill-rule="evenodd"/>
      <path id="Path_19" data-name="Path 19" d="M335.123,294.072c0,2.239,1.576-.095-.482,6.386-.6,1.879-.573.653-2.266,3.228-2.657,4.036-3.574,5.614-8.4,6.432-4.726.8-2.127,3.184-.662,3.184,4.932,0,6.41-1.688,8.866-4.594,1.093-1.294,1.81-.867,3.963-4.552l3.926-8.982c0-4.773-4.945-3.762-4.945-1.1Z" transform="translate(-262.65 -238.588)" fill="#fff" fill-rule="evenodd"/>
      <path id="Path_20" data-name="Path 20" d="M320.42,97.536c0,2.7,4.881.834,8.47,6.362,2.164,3.333,1.555,2.9,2.071,5.346.547,2.591,4.291,2.352,4.291.651,0-4.333-2.116-5.286-4.2-8.156a15.4,15.4,0,0,0-2-2.669c-3.107-3.062-2.959-3.115-6.846-3.282a1.551,1.551,0,0,0-1.781,1.748Z" transform="translate(-261.956 -78.309)" fill="#fff" fill-rule="evenodd"/>
      <path id="Path_21" data-name="Path 21" d="M306.87,244.285c0,1.764.609,2.011,1.091,3.029,1.005,2.135.356,7.38.443,8.371l.575,2.97c.029.053.071.12.106.17,1.013,1.43,4.1,1.336,4.1-3.279a24.741,24.741,0,0,0-.679-3.443c-.228-1.414.308-9.743-3.443-9.743a2.088,2.088,0,0,0-2.2,1.923Z" transform="translate(-250.878 -198.14)" fill="#fff" fill-rule="evenodd"/>
      <path id="Path_22" data-name="Path 22" d="M73.763,226.242c0,1.735.263,1.494.064,2.531-.276,1.427-.839,1.573.553,3.173a1.991,1.991,0,0,0,1.573.845c1.281.046,2.755-.865,2.755-2.155,0-1.965-1.761-.062-.8-6.838.252-1.77,2.781-2.877,1.075-4.7a2.321,2.321,0,0,0-2.2-.819c-1.3,0-1.9,2.053-2.324,3.169a13.228,13.228,0,0,0-.7,4.8Z" transform="translate(-60.069 -178.448)" fill="#fff" fill-rule="evenodd"/>
      <path id="Path_23" data-name="Path 23" d="M234.61,1.648c0,3.954,4.695,1.856,7.351,2.255,3.549.536,4.729,3.036,6.658-.608a3.914,3.914,0,0,0-1.79-1.505c-2.1-1.106-7.8-1.79-10.3-1.79-1.109,0-1.923.6-1.923,1.648Z" transform="translate(-191.802 0)" fill="#fff" fill-rule="evenodd"/>
      <path id="Path_24" data-name="Path 24" d="M299.342,191.167a3.593,3.593,0,0,0,3.022,3.3l1.2-1c1.2-1.288,1.376-.951,2.095-2.025-1.735-2.591-6.318-1.618-6.318-.275Z" transform="translate(-244.722 -155.185)" fill="#fff" fill-rule="evenodd"/>
    </g>
  </g>
</svg>
