<svg id="Layer_x0020_1" xmlns="http://www.w3.org/2000/svg" width="87.807" height="99.913" viewBox="0 0 87.807 99.913">
  <path id="Path_25" data-name="Path 25" d="M27.469,7.71l-7.14.33c-.953.153-1.521.45-2.088.563l-4.329.73c-2.1.244-3.941.1-2.7,3.792.343,1.022.213,1.924.522,2.852.182.549.4.7.6,1.329.608,1.915-.01,9.866.745,14.194.2,1.139.587,2.33.8,3.537L14.55,38.7c.286,1.13.081,2.546.28,3.817a24.019,24.019,0,0,1,.1,5.9c-.1,1.2-.444,2.6.11,3.77,1.214,2.558,3.276-.246,3.276-.867,0-1.933-.646-3.668-.518-5.576a34.507,34.507,0,0,0-.442-5.994c-.391-3.668-1.931-7.245-1.931-11.081,0-2.6-.2-5.34.013-7.939a20.746,20.746,0,0,0,.241-2.91c-.069-3.876-.79-3.221-1.218-5.054a30.787,30.787,0,0,0,4.489-1.294c4-1.039,10.856-.56,13.594-1.345.805-.231,1.391-.525,2.3-.828,3.574-1.187,8.921-1.464,12.766-2.173,1.026-.189,1.48-.444,2.477-.655.833-.175,1.568-.159,2.584-.306,3.285-.477,3.234-.151,5.811-.244,4.156-.149,5.866-1.1,11.634-1.1,1.362,0,.609,2.815.608,3.608-.011,4.857,1.556,5.721.832,14.457a46.117,46.117,0,0,0-.48,6.756c-.008,1.468.183,1.973.245,3.128.235,4.334-.7,5.147-.986,8.654a13.173,13.173,0,0,1-.191,1.5c-.343,1.662-1.854,1.12-3.373,1.687-4.351,1.624-9.079,2.009-13.724,2.661-1.83.257-3.532.682-5.475,1.031-1.079.194-1.969.171-2.939.435-2.873.781-10.3,3.787-12.207,4.178-4.894,1-13.741.865-17.39,2.368a46.839,46.839,0,0,1-7.682,1.957,6.18,6.18,0,0,0-2.5.869C2.9,59.414,0,58.559,0,60c0,4.871,8.571-.055,10.666-.418,3.4-.589,5.959-2.239,9.15-2.657,9.357-1.226,5.45.95,16.386-2.409l2.048-.843c.436-.21.713-.281,1.186-.5,3.712-1.729,4.97-1.246,6.735-1.94a8.4,8.4,0,0,1,2.195-.7A51.081,51.081,0,0,1,58.8,49.161c2.775,0,6.969-1.178,9.863-1.7,2.375-.432,5.2-.309,7.544-1.13,2.248-.786,3.642-.574,5.91-.018,4.334,1.062.53,2.309.53,9.109l.054,8.468a69.737,69.737,0,0,0-.535,7.917c0,1.713.223,3.956-.261,5.282a16.954,16.954,0,0,1-.941,1.951c-.928,1.554-4.782,1.705-6.546,1.887-2.239.231-3.065.033-4.822.721-2.373.929-10.252,1.893-11.616,2.36a12.33,12.33,0,0,1-2.426.465,30.456,30.456,0,0,0-4.284,1.257c-.964.281-1.209.513-1.939.712l-6.7,1.979c-1.731.388-2.995.267-4.638.9a7.39,7.39,0,0,1-2.329.563c-2.252.3-4.315,1.353-6.519,1.915-.988.252-3.4,1.69-4.093,1.69-1.23,0-.482-.839-.482-1.445,0-1.952-.628-4.456-.425-5.95L24.565,73.5a7.892,7.892,0,0,1-.082-3.013,16.182,16.182,0,0,0-.146-3.024c0-1.161,1.564-7.71-1.205-7.71L20.963,60c-.468,2.01.222,3.169.243,5.3.024,2.358.752,5.3.412,7.649-.226,1.566.183,2.21.041,3.634-.374,3.742-.245,7.611-.842,11.477-.317,2.05.419,4.369-.159,6.817-.222.942-.9,1.193-.9,2.473,0,1.907,2.274,4.123,5.36,1.023,2.466-2.477,6.387-2.829,9.42-4.315,4.642-2.271,8.13-1.175,11-2.489,2.114-.967,4.314-1.542,6.5-2.411a50.686,50.686,0,0,1,4.777-1.971c.744-.211,1.231-.117,2.11-.3a12.49,12.49,0,0,1,3.955-.623c6.123.042,9.453-2.168,16.386-2.168,2.008,0,2.383,1.927,4.819,1.927,1,0,1.927-2.639,1.927-3.614,0-1.63-1.268-2.157-.868-4.712.592-3.78-.3-8.011.244-11.815,1.121-7.8-1.591-7.2,1.239-15.628l1.1-4.941c.752-5.232-4.547-3.6-8.495-2.935a28.145,28.145,0,0,1-5.027.515c0-1.616-.394-2.615-.141-4.234.636-4.062-.773-8.326-.027-12.559l.659-8.5c-.218-4.127-1.484-8.73-.044-11.848a9.221,9.221,0,0,0,1.074-2.317C76.242,1.185,74.8,0,72.526,0c-1.213,0-1.246.623-2.021,1.112-1.468.926-4.086.66-5.9.845-.983.1-1.791.532-2.714.658-3.446.472-10.2.715-12.108,1.145-1.816.408-3.746.564-5.623.883-.833.141-2,.53-2.75.624a24.574,24.574,0,0,0-2.995.379,26.392,26.392,0,0,1-2.686.687,20.262,20.262,0,0,0-2.786.588c-3.612,1.209-2.393.789-5.475.789Zm22.891,10.6c0,1.923.77,2.533.933,4.127.095.929.081,1.526.2,2.211.689,4-.409,5.8-.409,11.011,0,4.168-.346,5.3,2.651,5.3.747,0,1.687-1.1,1.687-2.409,0-1.345-.744-.822-1.253-4.3l-.046-15.609c-.647-2.235-3.761-1.848-3.761-.335ZM38.795,19.518c0,6.486.634,4.194,1.144,7.772.829,5.824.655,7.38-.507,12.864-.4,1.863-3.094,4.527-6.086-.489A24.385,24.385,0,0,1,31.508,35a50.672,50.672,0,0,1-.9-5.612l.23-6.252c0-2.944.456-4.578-2.409-4.578-1.128,0-1.445,1.235-1.445,2.169,0,1.224.723,2.268.723,3.132,0,1.2-.239.227-.163,1.392a8.077,8.077,0,0,1,.171,1.491c-.083,4.55-.87,3.209.664,8.974.129.485.155.743.29,1.156a31.348,31.348,0,0,1,1.444,3.374c.866,2.707,2.243,3.17,4.153,5,1.878,1.8,4.394.937,6.036-.844,1.715-1.861,1.776-3.574,2.136-5.816.716-4.456,1.326-4.834.65-10.356a19.974,19.974,0,0,1-.443-4.858c0-1.781,1.08-3.9-.191-4.868a4.286,4.286,0,0,0-2.181-.523c-.565.092-1.483.932-1.483,1.537Zm25.06,38.793c-1.406-.744-.962-1.365-3.118-2.906s-1.721-4.056-5.316-2.154c.052,2.34.918,2.623,1.744,3.557.459.518.383.614.851,1.078.508.5.467.284.937.749.693.687,2.251,2.325,2.251,3.291,0,1.128-.026,1.017-.885,2.488a28.422,28.422,0,0,0-2,3.3c-.354.685-.638,1.081-1.054,1.837-1.086,1.969-.3,1.254-1.785,3.516-.621.945-.349.723-1.34,1.31-2.117,1.255-1.1,4.9,1.044,4.9,3,0,1.886-3.328,4.045-7.039.705-1.212,3.288-5.879,4.147-6.454l2.991,6.406c1.62,3.793,4.237-.3,4.237-1.346,0-1.3-2.1-3.017-2.8-3.947a16.518,16.518,0,0,1-2.018-4.728c0-.531,1.025-1.787,1.646-2.692l.78-.906a14.021,14.021,0,0,0,1.718-1.415c1.226-1.563,1.6-5.109-1.011-5.109-3.436,0-1.513.632-3.958,4.717a4.719,4.719,0,0,1-1.1,1.548ZM46.746,56.142c0,4.15,2.317,2.48,1.443,14.214-.216,2.914-1.875,3.328-4.471,5.408-1.065.853-.538.859-2.032.859-1.108,0-1.109-.345-1.557-1.093-.41-.686-.9-1.142-1.165-1.726-2.695-6.013,1.781-17.42-2.82-17.42-3.23,0-1.275,5.492-1.259,5.6a11.318,11.318,0,0,1-.151,3.353,23.768,23.768,0,0,0,.031,3.443c.131,3.774.169,5.022,2.148,8.283,2.185,3.6,2.18,3.9,4.533,3.9,1.7,0,3.62-1.486,4.654-2.334,2.459-2.012,4.115-2.848,4.61-5.751.695-4.077.182-3.623.376-6.859.05-.842.167-.885.169-1.442L51.084,60c0-2.8,2.122-6.024-2.651-6.024-.768,0-1.687,1.228-1.687,2.169Z" transform="translate(0 0)" fill="#fff" fill-rule="evenodd"/>
</svg>
